<mxfile host="app.diagrams.net" modified="2022-07-25T09:44:14.271Z" agent="5.0 (Windows NT 10.0; Win64; x64) AppleWebKit/537.36 (KHTML, like Gecko) Chrome/103.0.0.0 Safari/537.36" etag="CUtcC9DsoqmluFQB1o2u" version="20.2.0" type="github">
  <diagram id="PB_0yafCSLIIiQL7z2hB" name="Page-1">
    <mxGraphModel dx="1038" dy="539" grid="1" gridSize="10" guides="1" tooltips="1" connect="1" arrows="1" fold="1" page="1" pageScale="1" pageWidth="827" pageHeight="1169" math="0" shadow="0">
      <root>
        <mxCell id="0" />
        <mxCell id="1" parent="0" />
        <mxCell id="tKqVFDBrydmDNNHpiu56-1" value="&lt;b&gt;&lt;font style=&quot;font-size: 17px;&quot;&gt;Load Circuit&amp;nbsp;&lt;/font&gt;&lt;/b&gt;" style="rounded=1;whiteSpace=wrap;html=1;fillColor=#FFCC26;strokeColor=#FFAD1F;shadow=1;" parent="1" vertex="1">
          <mxGeometry x="40" y="160" width="120" height="60" as="geometry" />
        </mxCell>
        <mxCell id="tKqVFDBrydmDNNHpiu56-2" value="&lt;b&gt;&lt;font style=&quot;font-size: 17px;&quot;&gt;Relay&lt;/font&gt;&lt;/b&gt;" style="rounded=1;whiteSpace=wrap;html=1;fillColor=#B8BFFC;strokeColor=#B8BFFC;shadow=1;" parent="1" vertex="1">
          <mxGeometry x="250" y="160" width="120" height="60" as="geometry" />
        </mxCell>
        <mxCell id="tKqVFDBrydmDNNHpiu56-3" value="&lt;font style=&quot;font-size: 17px;&quot;&gt;&lt;b&gt;Arduino Uno&lt;/b&gt;&lt;/font&gt;" style="rounded=1;whiteSpace=wrap;html=1;fillColor=#1D86CC;strokeColor=#1D86CC;glass=0;shadow=1;" parent="1" vertex="1">
          <mxGeometry x="480" y="160" width="120" height="60" as="geometry" />
        </mxCell>
        <mxCell id="tKqVFDBrydmDNNHpiu56-5" value="&lt;b&gt;&lt;font style=&quot;font-size: 17px;&quot;&gt;IoT Cloud&lt;/font&gt;&lt;/b&gt;" style="ellipse;whiteSpace=wrap;html=1;fillColor=#33FF33;strokeColor=#33FF33;" parent="1" vertex="1">
          <mxGeometry x="480" y="410" width="120" height="80" as="geometry" />
        </mxCell>
        <mxCell id="tKqVFDBrydmDNNHpiu56-6" value="" style="endArrow=classic;startArrow=classic;html=1;rounded=0;fontSize=17;exitX=1;exitY=0.5;exitDx=0;exitDy=0;" parent="1" source="tKqVFDBrydmDNNHpiu56-1" edge="1">
          <mxGeometry width="50" height="50" relative="1" as="geometry">
            <mxPoint x="390" y="290" as="sourcePoint" />
            <mxPoint x="250" y="190" as="targetPoint" />
          </mxGeometry>
        </mxCell>
        <mxCell id="tKqVFDBrydmDNNHpiu56-7" value="" style="endArrow=classic;startArrow=classic;html=1;rounded=0;fontSize=17;exitX=1;exitY=0.5;exitDx=0;exitDy=0;" parent="1" source="tKqVFDBrydmDNNHpiu56-1" edge="1">
          <mxGeometry width="50" height="50" relative="1" as="geometry">
            <mxPoint x="160" y="190" as="sourcePoint" />
            <mxPoint x="250" y="190" as="targetPoint" />
            <Array as="points">
              <mxPoint x="210" y="190" />
            </Array>
          </mxGeometry>
        </mxCell>
        <mxCell id="tKqVFDBrydmDNNHpiu56-8" value="" style="endArrow=classic;startArrow=classic;html=1;rounded=0;fontSize=17;exitX=0.5;exitY=1;exitDx=0;exitDy=0;strokeWidth=1;" parent="1" source="tKqVFDBrydmDNNHpiu56-3" edge="1">
          <mxGeometry width="50" height="50" relative="1" as="geometry">
            <mxPoint x="620" y="210" as="sourcePoint" />
            <mxPoint x="540" y="290" as="targetPoint" />
            <Array as="points">
              <mxPoint x="540" y="250" />
            </Array>
          </mxGeometry>
        </mxCell>
        <mxCell id="tKqVFDBrydmDNNHpiu56-9" value="" style="endArrow=classic;startArrow=classic;html=1;rounded=0;fontSize=17;exitX=1;exitY=0.5;exitDx=0;exitDy=0;entryX=0;entryY=0.5;entryDx=0;entryDy=0;" parent="1" source="tKqVFDBrydmDNNHpiu56-2" target="tKqVFDBrydmDNNHpiu56-3" edge="1">
          <mxGeometry width="50" height="50" relative="1" as="geometry">
            <mxPoint x="389" y="215" as="sourcePoint" />
            <mxPoint x="439" y="165" as="targetPoint" />
          </mxGeometry>
        </mxCell>
        <mxCell id="tKqVFDBrydmDNNHpiu56-10" value="&lt;b&gt;Android device/ user&lt;/b&gt;" style="rounded=1;whiteSpace=wrap;html=1;fontSize=17;strokeColor=#b85450;fillColor=#f8cecc;shadow=1;" parent="1" vertex="1">
          <mxGeometry x="490" y="540" width="120" height="60" as="geometry" />
        </mxCell>
        <mxCell id="tKqVFDBrydmDNNHpiu56-11" value="" style="endArrow=classic;startArrow=classic;html=1;rounded=0;fontSize=17;entryX=0.5;entryY=1;entryDx=0;entryDy=0;" parent="1" target="tKqVFDBrydmDNNHpiu56-5" edge="1">
          <mxGeometry width="50" height="50" relative="1" as="geometry">
            <mxPoint x="540" y="540" as="sourcePoint" />
            <mxPoint x="440" y="230" as="targetPoint" />
          </mxGeometry>
        </mxCell>
        <mxCell id="jP92rVYAYUmSKhEwDqTg-1" value="&lt;font style=&quot;font-size: 17px;&quot;&gt;&lt;b&gt;Wifi module&lt;br&gt;ESP8266&lt;br&gt;&lt;/b&gt;&lt;/font&gt;" style="rounded=1;whiteSpace=wrap;html=1;fillColor=#CCCCCC;strokeColor=#CCCCCC;shadow=1;" vertex="1" parent="1">
          <mxGeometry x="480" y="290" width="120" height="60" as="geometry" />
        </mxCell>
        <mxCell id="jP92rVYAYUmSKhEwDqTg-3" value="" style="endArrow=classic;startArrow=classic;html=1;rounded=0;fontSize=17;exitX=0.5;exitY=1;exitDx=0;exitDy=0;entryX=0.5;entryY=0;entryDx=0;entryDy=0;" edge="1" parent="1" source="jP92rVYAYUmSKhEwDqTg-1" target="tKqVFDBrydmDNNHpiu56-5">
          <mxGeometry width="50" height="50" relative="1" as="geometry">
            <mxPoint x="550" y="307" as="sourcePoint" />
            <mxPoint x="550" y="377" as="targetPoint" />
            <Array as="points">
              <mxPoint x="540" y="370" />
            </Array>
          </mxGeometry>
        </mxCell>
      </root>
    </mxGraphModel>
  </diagram>
</mxfile>
